<svg height="512" viewBox="0 0 64 64" width="512" xmlns="http://www.w3.org/2000/svg"><g id="Time-Management"><path d="m57 30a27.008 27.008 0 0 1 -1.11 7.68 12.487 12.487 0 0 0 -3.61-1.95 22.977 22.977 0 1 0 -16.55 16.55 12.487 12.487 0 0 0 1.95 3.61 27 27 0 1 1 19.32-25.89z" fill="#bddbff"/><path d="m57 49v-2l-2.18-.54a6.936 6.936 0 0 0 -.9-2.19l1.15-1.93-.7-.7-.71-.71-1.93 1.15a7.179 7.179 0 0 0 -1.71-.78l-.48-.12-.54-2.18h-2l-.54 2.18a6.936 6.936 0 0 0 -2.19.9l-1.93-1.15-1.41 1.41 1.15 1.93a6.936 6.936 0 0 0 -.9 2.19l-2.18.54v2l2.18.54.12.48a7.179 7.179 0 0 0 .78 1.71l-1.15 1.93.71.71.7.7 1.93-1.15a6.936 6.936 0 0 0 2.19.9l.54 2.18h2l.54-2.18a6.936 6.936 0 0 0 2.19-.9l1.93 1.15 1.41-1.41-1.15-1.93a6.936 6.936 0 0 0 .9-2.19zm-9 2a2.782 2.782 0 0 1 -.87-.14 2.961 2.961 0 0 1 -2.13-2.86 2.73 2.73 0 0 1 .07-.64 2.985 2.985 0 0 1 2.29-2.29 2.73 2.73 0 0 1 .64-.07 2.961 2.961 0 0 1 2.86 2.13 2.782 2.782 0 0 1 .14.87 3 3 0 0 1 -3 3z" fill="#bddbff"/><path d="m27.999 27.999h4.002v4.002h-4.002z" fill="#bddbff" transform="matrix(.707 -.707 .707 .707 -12.426 30)"/><g fill="#3d9ae2"><path d="m29 10h2v2h-2z"/><path d="m15.565 15.565h2v2h-2z" transform="matrix(.707 -.707 .707 .707 -6.861 16.557)"/><path d="m10 29h2v2h-2z"/><path d="m15.565 42.435h2v2h-2z" transform="matrix(.707 -.707 .707 .707 -25.868 24.45)"/><path d="m29 48h2v2h-2z"/><path d="m48 29h2v2h-2z"/><path d="m42.435 15.565h2v2h-2z" transform="matrix(.707 -.707 .707 .707 1.015 35.58)"/><path d="m31 26.758v-11.758h-2v11.758l-2.243 2.242h-9.757v2h9.757l2.536 2.535a1 1 0 0 0 1.414 0l2.829-2.828a1 1 0 0 0 0-1.414zm-1 4.656-1.414-1.414 1.414-1.414 1.414 1.414z"/><path d="m48 44a4 4 0 1 0 4 4 4 4 0 0 0 -4-4zm0 6a2 2 0 1 1 2-2 2 2 0 0 1 -2 2z"/><path d="m57.242 46.03-1.606-.4a7.951 7.951 0 0 0 -.56-1.351l.853-1.421a1 1 0 0 0 -.151-1.221l-1.414-1.414a1 1 0 0 0 -1.222-.151l-1.421.853a7.884 7.884 0 0 0 -1.349-.56l-.4-1.606a1 1 0 0 0 -.972-.759h-2a1 1 0 0 0 -.97.758l-.4 1.606a7.884 7.884 0 0 0 -1.349.56l-1.421-.853a1 1 0 0 0 -1.222.151l-1.414 1.414a1 1 0 0 0 -.151 1.221l.853 1.421a7.951 7.951 0 0 0 -.56 1.351l-1.606.4a1 1 0 0 0 -.76.971v2a1 1 0 0 0 .758.97l1.606.4a7.908 7.908 0 0 0 .56 1.35l-.853 1.422a1 1 0 0 0 .151 1.221l1.414 1.414a1 1 0 0 0 1.222.151l1.421-.853a7.884 7.884 0 0 0 1.349.56l.4 1.606a1 1 0 0 0 .972.759h2a1 1 0 0 0 .97-.758l.4-1.606a7.884 7.884 0 0 0 1.349-.56l1.421.853a1 1 0 0 0 1.222-.151l1.414-1.414a1 1 0 0 0 .151-1.221l-.853-1.422a7.908 7.908 0 0 0 .56-1.35l1.606-.4a1 1 0 0 0 .76-.971v-2a1 1 0 0 0 -.758-.97zm-1.242 2.189-1.419.355a1 1 0 0 0 -.733.75 5.918 5.918 0 0 1 -.778 1.876 1 1 0 0 0 -.012 1.05l.754 1.257-.31.31-1.256-.753a1 1 0 0 0 -1.049.011 5.967 5.967 0 0 1 -1.873.778 1 1 0 0 0 -.75.733l-.355 1.414h-.438l-.355-1.419a1 1 0 0 0 -.75-.733 5.967 5.967 0 0 1 -1.876-.778 1.007 1.007 0 0 0 -1.049-.011l-1.256.753-.31-.31.754-1.257a1 1 0 0 0 -.012-1.05 5.918 5.918 0 0 1 -.778-1.871 1 1 0 0 0 -.733-.75l-1.416-.355v-.438l1.419-.355a1 1 0 0 0 .733-.75 5.948 5.948 0 0 1 .778-1.876 1 1 0 0 0 .012-1.049l-.754-1.251.31-.31 1.256.753a1 1 0 0 0 1.046-.013 5.967 5.967 0 0 1 1.873-.778 1 1 0 0 0 .75-.733l.358-1.419h.438l.355 1.419a1 1 0 0 0 .75.733 5.967 5.967 0 0 1 1.873.778 1 1 0 0 0 1.049.011l1.256-.753.31.31-.754 1.256a1 1 0 0 0 .012 1.046 5.948 5.948 0 0 1 .778 1.873 1 1 0 0 0 .733.75l1.419.358z"/><path d="m57.018 37.308a28.049 28.049 0 1 0 -19.71 19.71 13.989 13.989 0 1 0 19.71-19.71zm-27.018 18.692a26.041 26.041 0 1 1 25.275-19.939 13.97 13.97 0 0 0 -1.831-.959 24.038 24.038 0 1 0 -18.344 18.342 13.97 13.97 0 0 0 .959 1.831 26.05 26.05 0 0 1 -6.059.725zm4-8a13.945 13.945 0 0 0 .47 3.537 22.022 22.022 0 1 1 17.067-17.067 13.947 13.947 0 0 0 -17.537 13.53zm14 12a12 12 0 1 1 12-12 12.013 12.013 0 0 1 -12 12z"/></g></g></svg>